<?xml version="1.0" standalone="no"?><!DOCTYPE svg PUBLIC "-//W3C//DTD SVG 1.1//EN" "http://www.w3.org/Graphics/SVG/1.1/DTD/svg11.dtd"><svg t="1742906616321" class="icon" viewBox="0 0 1024 1024" version="1.1" xmlns="http://www.w3.org/2000/svg" p-id="4552" xmlns:xlink="http://www.w3.org/1999/xlink" width="16" height="16"><path d="M320.1 207.9c-61.2 0-111 49.8-111 111s49.8 111 111 111 111-49.8 111-111-49.8-111-111-111z m33 111.1c0 18.2-14.8 33-33 33s-33-14.8-33-33 14.8-33 33-33 33 14.8 33 33z" p-id="4553"></path><path d="M848 112H176.1c-34.7 0-63 28.3-63 63v547.8c-0.1 1.8-0.1 3.6 0 5.4V847c0 34.7 28.3 63 63 63H848c34.7 0 63-28.3 63-63V174.9c0-34.7-28.3-62.9-63-62.9z m-15 376.4l-72.4-78.3-0.9-0.7c-8.2-6.6-19-9.8-31.2-9.2-11.4-0.6-21.8 2.8-29.4 9.6l-212.9 174-65.1-75.3-0.4-0.4c-8.2-8.7-19.8-13.1-31.9-12.1-3.1 0.1-5.6 0.8-7 1.2-0.1 0-0.3 0.1-0.4 0.1l-1.3 0.2-1.5 0.6c-0.1 0.1-0.3 0.1-0.4 0.1-0.2 0.1-0.5 0.2-0.9 0.3-0.3 0.1-0.6 0.1-0.9 0.2-4.5 1-11.4 2.5-17.3 7.7l-168 136.9V198.9c0-5 4-9 9-9H824c4.8 0 8.7 3.8 9 8.5v290zM191.1 748.9l193.7-157.6 208.1 240.6H200.1c-4.8 0-8.7-3.8-9-8.5v-74.5z m533.2-259.7L833 606.7v216.1c0 5-4 9-9 9H700.8L536.9 642.4l187.4-153.2z" p-id="4554"></path></svg>